<?xml version="1.0" encoding="utf-8"?>
<!-- Generator: Adobe Illustrator 16.0.0, SVG Export Plug-In . SVG Version: 6.00 Build 0)  -->
<!DOCTYPE svg PUBLIC "-//W3C//DTD SVG 1.1//EN" "http://www.w3.org/Graphics/SVG/1.1/DTD/svg11.dtd">
<svg version="1.1" id="Layer_1" xmlns="http://www.w3.org/2000/svg" xmlns:xlink="http://www.w3.org/1999/xlink" x="0px" y="0px"
	 width="128px" height="128px" viewBox="0 0 128 128" enable-background="new 0 0 128 128" xml:space="preserve">
<g>
	<g>
		<g>
			<g>
				<path fill="#A020F0" d="M65.922,36.533l-3.766-1.347c3.992-11.162,11.39-20.563,20.833-26.473l2.121,3.391
					C76.426,17.538,69.612,26.214,65.922,36.533z"/>
			</g>
			<g>
				<path fill="#A020F0" d="M62.078,36.533C58.385,26.212,51.57,17.537,42.89,12.104l2.122-3.391
					c9.439,5.908,16.837,15.309,20.832,26.473L62.078,36.533z"/>
			</g>
		</g>
		<g>
			<g>
				<path fill="#A020F0" d="M46.86,80.67c0,0-0.001,0-0.002,0C23.132,80.669,2.647,59.913,0.222,33.417
					c-0.346-3.851-0.288-7.708,0.175-11.794l0.127-1.124l1.029-0.47c4.235-1.933,8.733-3.133,13.37-3.565
					c1.278-0.119,2.573-0.179,3.85-0.179c23.727,0,44.209,20.76,46.632,47.262c0.349,3.843,0.29,7.809-0.174,11.788l-0.13,1.12
					l-1.026,0.468c-4.255,1.941-8.753,3.143-13.37,3.568C49.431,80.61,48.136,80.67,46.86,80.67z M4.253,23.213
					c-0.321,3.395-0.336,6.626-0.047,9.844C6.444,57.511,25.18,76.669,46.858,76.67c0.001,0,0.001,0,0.002,0
					c1.153,0,2.322-0.054,3.477-0.161c3.797-0.351,7.506-1.282,11.042-2.77c0.318-3.325,0.333-6.626,0.042-9.83
					c-2.236-24.462-20.969-43.625-42.648-43.625c-1.154,0-2.325,0.055-3.479,0.162C11.482,20.802,7.774,21.731,4.253,23.213z"/>
			</g>
			<g>
				<g>
					<path fill="#A020F0" d="M81.143,80.671c-1.277,0-2.573-0.06-3.851-0.179c-4.612-0.426-9.11-1.626-13.365-3.567l-1.026-0.468
						l-0.131-1.12c-0.464-3.985-0.523-7.951-0.176-11.787c2.424-26.504,22.909-47.265,46.635-47.265c1.277,0,2.572,0.061,3.85,0.179
						c4.639,0.433,9.136,1.633,13.367,3.565l1.028,0.47l0.128,1.124c0.464,4.088,0.521,7.944,0.177,11.791
						C125.354,59.915,104.869,80.671,81.143,80.671z M66.623,73.741c3.536,1.487,7.244,2.418,11.038,2.769
						c1.156,0.107,2.327,0.161,3.481,0.161c21.68,0,40.415-19.159,42.653-43.618c0.288-3.214,0.272-6.444-0.05-9.841
						c-3.517-1.48-7.225-2.411-11.037-2.767c-1.154-0.107-2.325-0.162-3.479-0.162c-21.68,0-40.414,19.164-42.652,43.628
						C66.288,67.11,66.304,70.411,66.623,73.741z"/>
				</g>
				<g>
					
						<rect x="92.477" y="9.135" transform="matrix(0.6572 0.7537 -0.7537 0.6572 69.1131 -54.5013)" fill="#282D33" width="4" height="79.199"/>
				</g>
				<g>
					<rect x="100.446" y="18.926" fill="#282D33" width="4" height="22.396"/>
				</g>
				<g>
					<rect x="81.224" y="28.96" fill="#282D33" width="4" height="29.396"/>
				</g>
				<g>
					<rect x="92.802" y="48.074" fill="#282D33" width="28.738" height="4"/>
				</g>
				<g>
					<rect x="74.914" y="64.517" fill="#282D33" width="34.973" height="4"/>
				</g>
			</g>
		</g>
	</g>
	<g>
		<path fill="#A020F0" d="M19.194,119.287l-0.44-1.423c-1.262-4.084-2.052-7.983-2.414-11.92
			c-2.58-28.317,15.86-53.255,41.105-55.593c1.226-0.124,2.465-0.134,3.627-0.134h1.467l0.44,1.4
			c1.245,3.957,2.06,7.97,2.424,11.929c2.581,28.302-15.854,53.239-41.094,55.594c-1.286,0.111-2.53,0.123-3.628,0.134
			L19.194,119.287z M59.59,54.231c-0.593,0.015-1.179,0.043-1.758,0.102c-23.069,2.136-39.887,25.125-37.508,51.247
			c0.293,3.195,0.894,6.373,1.828,9.671c0.595-0.016,1.204-0.043,1.802-0.095c23.036-2.148,39.85-25.138,37.469-51.246
			C61.127,60.705,60.512,57.456,59.59,54.231z"/>
	</g>
	<g>
		<path fill="#A020F0" d="M108.807,119.287l-1.49-0.014c-1.099-0.011-2.343-0.022-3.616-0.133
			c-21.683-2.021-38.972-21.035-41.124-45.208l3.984-0.355c1.98,22.251,17.751,39.739,37.498,41.58
			c0.591,0.051,1.196,0.078,1.789,0.094c0.935-3.298,1.534-6.477,1.829-9.673c0.815-8.953-0.606-17.876-4.111-25.804l3.658-1.617
			c3.779,8.548,5.313,18.155,4.437,27.786c-0.363,3.938-1.152,7.836-2.414,11.92L108.807,119.287z"/>
	</g>
</g>
</svg>
